<?xml version="1.0" standalone="no"?>
<!DOCTYPE svg PUBLIC "-//W3C//DTD SVG 20010904//EN"
 "http://www.w3.org/TR/2001/REC-SVG-20010904/DTD/svg10.dtd">
<svg version="1.0" xmlns="http://www.w3.org/2000/svg"
 width="100.000000pt" height="100.000000pt" viewBox="0 0 100.000000 100.000000"
 preserveAspectRatio="xMidYMid meet">

<g transform="translate(0.000000,100.000000) scale(0.100000,-0.100000)"
fill="#000000" stroke="none">
<path d="M326 979 c-312 -126 -403 -533 -176 -783 99 -108 210 -158 355 -159
136 -1 238 38 337 131 248 231 189 640 -114 792 l-80 40 -137 -1 c-111 0 -145
-4 -185 -20z m200 0 c10 -17 -13 -36 -27 -22 -12 12 -4 33 11 33 5 0 12 -5 16
-11z m149 -97 c50 -24 66 -35 57 -44 -8 -8 -24 -5 -62 11 -107 46 -228 46
-326 -1 -32 -15 -48 -18 -56 -10 -7 7 3 17 33 33 77 39 120 49 204 46 66 -3
93 -9 150 -35z m-81 -27 c31 -8 69 -21 82 -28 24 -13 24 -14 -64 -80 -49 -37
-92 -67 -95 -67 -5 0 -173 116 -196 136 -11 10 134 52 184 53 17 1 57 -6 89
-14z m-296 -163 c23 -70 42 -133 42 -139 0 -6 -40 -41 -90 -78 -50 -37 -90
-73 -90 -81 0 -11 21 -14 98 -15 139 -1 141 -3 167 -79 12 -36 25 -78 29 -93
7 -28 6 -29 -26 -22 -81 17 -178 87 -229 165 -9 14 -20 22 -24 18 -9 -9 48
-85 91 -121 47 -39 126 -76 180 -84 l47 -6 -6 32 c-4 20 -3 30 3 26 6 -3 10
-14 10 -23 1 -15 3 -14 17 3 15 19 15 19 9 -7 -6 -25 -3 -28 17 -28 35 0 128
34 175 64 68 43 147 134 130 151 -2 2 -19 -17 -38 -43 -20 -26 -57 -61 -83
-79 -48 -32 -156 -78 -164 -69 -3 3 9 48 27 100 l32 96 86 0 c97 0 162 9 162
21 0 4 -39 38 -88 75 -48 37 -91 71 -95 75 -7 5 45 196 60 222 6 10 59 -57 86
-108 15 -30 22 -67 27 -145 4 -79 8 -98 14 -77 5 16 6 63 4 105 -4 63 -11 89
-38 140 -18 35 -47 74 -63 88 -22 18 -27 28 -19 36 14 14 34 -1 73 -59 151
-219 47 -527 -204 -604 -189 -58 -385 28 -473 206 -27 55 -29 69 -29 170 0 99
3 115 27 165 27 55 83 130 97 130 3 0 26 -58 49 -128z m125 15 c45 -33 65 -53
58 -60 -6 -6 -23 4 -48 29 -21 22 -54 52 -73 67 -53 43 -14 20 63 -36z m227
29 c0 -2 -8 -10 -17 -17 -16 -13 -17 -12 -4 4 13 16 21 21 21 13z m-280 -86
c12 -43 13 -87 1 -74 -9 10 -51 132 -51 148 1 20 40 -39 50 -74z m308 2 c-12
-40 -25 -72 -30 -72 -10 0 -10 15 1 63 9 37 39 92 46 85 2 -2 -6 -36 -17 -76z
m-100 18 c-13 -21 -28 -27 -28 -10 0 5 8 14 18 19 23 14 24 14 10 -9z m372
-25 c0 -8 -6 -15 -14 -15 -17 0 -28 14 -19 24 12 12 33 6 33 -9z m-852 -12
c-4 -22 -22 -20 -26 1 -2 10 3 16 13 16 10 0 15 -7 13 -17z m445 -87 c24 -19
26 -24 13 -29 -9 -4 -16 -2 -16 4 0 6 -7 17 -15 26 -12 12 -19 12 -30 3 -7 -6
-11 -18 -8 -26 6 -16 -13 -19 -22 -4 -6 9 31 49 45 49 3 0 18 -10 33 -23z
m197 -71 c77 -60 80 -65 28 -64 -36 0 -39 2 -20 9 12 5 22 11 22 14 0 2 -23
23 -51 45 -29 23 -48 41 -45 41 4 0 34 -20 66 -45z m-218 13 c-9 -9 -15 -9
-24 0 -9 9 -7 12 12 12 19 0 21 -3 12 -12z m-69 -12 c3 -8 3 -17 0 -20 -7 -7
-33 13 -33 25 0 15 27 10 33 -5z m147 4 c0 -12 -28 -25 -36 -17 -9 9 6 27 22
27 8 0 14 -5 14 -10z m-170 -60 c6 -11 7 -20 2 -20 -6 0 -12 9 -15 20 -3 11
-3 20 -1 20 2 0 8 -9 14 -20z m-170 0 c12 -8 9 -10 -13 -10 -16 0 -26 4 -22
10 8 12 16 12 35 0z m130 -5 c0 -10 -10 -15 -32 -15 l-33 1 25 14 c32 18 40
18 40 0z m214 0 c-4 -8 -8 -15 -10 -15 -2 0 -4 7 -4 15 0 8 4 15 10 15 5 0 7
-7 4 -15z m61 -5 c3 -5 -1 -10 -9 -10 -8 0 -18 5 -21 10 -3 6 1 10 9 10 8 0
18 -4 21 -10z m-141 -100 c-6 -6 -19 -7 -30 -3 -17 6 -17 8 6 13 29 8 38 4 24
-10z m28 -54 c-3 -12 -7 -15 -10 -8 -2 6 -16 12 -32 12 -16 0 -30 -6 -32 -12
-3 -7 -7 -4 -10 7 -4 18 0 20 42 20 42 0 46 -2 42 -19z m-302 -79 c0 -8 -3
-17 -7 -20 -9 -9 -34 13 -27 24 8 14 34 11 34 -4z m546 2 c7 -12 -15 -31 -28
-23 -4 3 -8 12 -8 20 0 17 26 19 36 3z"/>
<path d="M486 805 c4 -8 1 -22 -6 -30 -10 -12 -10 -15 3 -15 9 0 20 -8 26 -17
9 -17 10 -17 16 0 4 9 13 17 20 17 10 0 11 5 2 25 -7 14 -16 23 -22 21 -5 -2
-18 1 -27 6 -14 6 -16 5 -12 -7z"/>
<path d="M217 761 c-46 -55 -71 -121 -75 -199 -5 -80 4 -142 19 -142 6 0 7 14
2 38 -21 100 6 209 73 297 32 42 16 47 -19 6z"/>
<path d="M314 322 c0 -9 7 -23 14 -30 10 -11 14 -11 25 0 18 18 7 42 -19 45
-15 2 -21 -3 -20 -15z"/>
<path d="M656 302 c-3 -5 1 -9 9 -9 8 0 12 4 9 9 -3 4 -7 8 -9 8 -2 0 -6 -4
-9 -8z"/>
</g>
</svg>
